# xmcd CD database file
#
# Track frame offsets:
#	150
#	28690
#	52897
#	76750
#	108705
#	131740
#	158894
#	181860
#	210038
#	232565
#	249871
#	278722
#	307234
#	342051
#
# Disc length: 4644 seconds
#
# Revision: 4
# Processed by: cddbd v1.5.1PL0 Copyright (c) Steve Scherf et al.
# Submitted via: CDex 1.51
#
DISCID=a912220e
DTITLE=ケツメイシ - ケツノポリス4
DYEAR=2005
DGENRE=JPop
TTITLE0=ドライブ
TTITLE1=歩いてく
TTITLE2=さくら
TTITLE3=そばにいて
TTITLE4=上がる
TTITLE5=朝日
TTITLE6=No Lady No LIfe
TTITLE7=君にBUMP
TTITLE8=ケツメンサンバ
TTITLE9=三十路ボンバイエ
TTITLE10=涙
TTITLE11=東京
TTITLE12=願い
TTITLE13=アウトロ
EXTD=YEAR: 2005
EXTT0=
EXTT1=
EXTT2=
EXTT3=
EXTT4=
EXTT5=
EXTT6=
EXTT7=
EXTT8=
EXTT9=
EXTT10=
EXTT11=
EXTT12=
EXTT13=
PLAYORDER=
